HIERARCHY
ROOT Hips
{
     OFFSET 1.88212 96.90440 -13.34250
     CHANNELS 6 Xposition Yposition Zposition Zrotation Xrotation Yrotation
     JOINT Spine
     {
          OFFSET 0.00000 11.89050 0.00000
          CHANNELS 3 Zrotation Xrotation Yrotation
          JOINT Spine1
          {
               OFFSET -0.00000 25.65740 0.12766
               CHANNELS 3 Zrotation Xrotation Yrotation
               JOINT HEad
               {
                    OFFSET 0.00000 8.73416 0.01134
                    CHANNELS 3 Zrotation Xrotation Yrotation
                    End Site
                    {
                         OFFSET -0.29000 12.77420 2.51395
                    }
               }
               JOINT LeftShoulder1
               {
                    OFFSET 8.99000 -0.36225 -0.22000
                    CHANNELS 3 Zrotation Xrotation Yrotation
                    JOINT LeftArm
                    {
                         OFFSET 10.28270 -0.00338 0.32212
                         CHANNELS 3 Zrotation Xrotation Yrotation
                         JOINT LeftForeArm
                         {
                              OFFSET 32.76690 0.09914 -1.42434
                              CHANNELS 3 Zrotation Xrotation Yrotation
                              JOINT LeftHand
                              {
                                   OFFSET 27.56430 0.08536 1.02216
                                   CHANNELS 3 Zrotation Xrotation Yrotation
                                   End Site
                                   {
                                        OFFSET 16.74430 -0.60000 1.50291
                                   }
                              }
                         }
                    }
               }
               JOINT RightShoulder
               {
                    OFFSET -8.99000 -0.36225 -0.22000
                    CHANNELS 3 Zrotation Xrotation Yrotation
                    JOINT RightArm
                    {
                         OFFSET -10.28270 -0.00338 0.32212
                         CHANNELS 3 Zrotation Xrotation Yrotation
                         JOINT RightForeArm
                         {
                              OFFSET -32.89710 0.09914 -1.42434
                              CHANNELS 3 Zrotation Xrotation Yrotation
                              JOINT RightHand
                              {
                                   OFFSET -27.49210 0.08536 1.02216
                                   CHANNELS 3 Zrotation Xrotation Yrotation
                                   End Site
                                   {
                                        OFFSET -16.63120 -0.60000 1.50291
                                   }
                              }
                         }
                    }
               }
          }
     }
     JOINT LeftUpLeg
     {
          OFFSET 8.94580 -8.66707 0.10165
          CHANNELS 3 Zrotation Xrotation Yrotation
          JOINT LeftLeg
          {
               OFFSET 0.00000 -44.42270 1.37270
               CHANNELS 3 Zrotation Xrotation Yrotation
               JOINT LeftFoot
               {
                    OFFSET -0.25355 -42.09240 -1.46059
                    CHANNELS 3 Zrotation Xrotation Yrotation
                    JOINT LeftToes
                    {
                         OFFSET -0.04000 -4.41509 8.49910
                         CHANNELS 3 Zrotation Xrotation Yrotation
                         End Site
                         {
                              OFFSET 0.08000 -0.04745 9.77979
                         }
                    }
               }
          }
     }
     JOINT RightUpLeg
     {
          OFFSET -8.94580 -8.66707 0.10165
          CHANNELS 3 Zrotation Xrotation Yrotation
          JOINT RightLeg
          {
               OFFSET 0.00000 -44.42270 1.37270
               CHANNELS 3 Zrotation Xrotation Yrotation
               JOINT RightFoot
               {
                    OFFSET 0.25355 -42.09240 -1.46059
                    CHANNELS 3 Zrotation Xrotation Yrotation
                    JOINT RightToes
                    {
                         OFFSET 0.04000 -4.41509 8.49910
                         CHANNELS 3 Zrotation Xrotation Yrotation
                         End Site
                         {
                              OFFSET -0.08000 -0.13745 9.77979
                         }
                    }
               }
          }
     }
}
MOTION
Frames: 15
Frame Time: 0.01667
23.76937 92.97516 -32.34486 9.75557 13.30417 150.26404 -11.11940 10.82226 -13.09009 0.00352 0.00981 0.02137 4.64802 0.77321 22.07989 -4.34185 6.86483 11.27121 -52.05347 -35.25898 -13.11792 -100.41805 -14.79414 -103.07219 -27.97590 7.00588 -7.42859 12.67046 9.15789 4.17266 89.09998 10.41841 72.12415 32.10159 32.94738 89.22707 5.42044 15.97304 9.72632 33.01326 2.06956 -32.24118 -39.27187 8.06881 100.25821 -4.38907 -0.14389 0.01725 5.23958 -7.80757 -56.49380 -32.61497 -1.01876 -10.73699 37.00639 43.22420 -27.82187 -15.54593 0.59142 0.24800 -0.30715 -18.60433 4.92070 
22.83166 92.37240 -33.24889 10.22415 13.09656 148.88551 -10.11329 11.06737 -13.68021 0.00189 0.00502 0.01620 4.97867 0.95267 22.77677 2.60379 7.50876 1.54915 -47.08875 -48.40493 -5.42021 -100.79460 -12.26208 -94.61774 -27.72164 21.38767 -14.75415 12.52425 8.83249 5.00209 90.83656 9.09902 71.55731 32.35568 33.91696 88.61713 -0.91965 21.69521 15.39707 31.46679 2.89339 -35.82106 -37.63302 8.64996 97.06252 -7.35677 -0.20671 0.00379 6.01424 -7.10172 -49.48188 -32.79009 -2.48404 -13.02145 37.18135 45.97646 -32.51836 -19.22141 -0.18535 0.02967 4.43343 -26.32119 15.15827 
21.94863 91.79196 -34.17008 10.71844 12.87297 147.50844 -9.07670 11.30235 -14.04116 -0.00136 0.00439 0.01087 5.25388 1.12901 23.30740 1.51181 7.04174 2.78935 -39.52257 -52.72916 -7.30665 -102.39684 -9.64021 -89.24653 -31.94285 8.92993 -9.77487 12.28337 8.40544 5.36512 92.05053 8.41566 71.01625 32.52060 34.70420 88.29772 6.67945 15.01488 11.02649 29.87171 3.52828 -38.84613 -35.95933 10.10824 92.83382 -10.81149 -0.26681 -0.01838 7.16948 -7.18916 -41.68118 -32.79885 -3.84042 -14.84554 37.56633 48.04113 -35.22039 -18.11443 0.02333 0.06902 5.11189 -24.65198 17.73555 
21.09422 91.27040 -35.04174 11.22952 12.67276 146.17953 -8.10362 11.55056 -14.24722 -0.00435 0.00237 0.00659 5.50716 1.32492 23.71204 0.37970 6.46416 3.48055 -33.05765 -56.19355 -11.06992 -104.55990 -7.19905 -87.90726 -25.30646 19.44246 -27.36002 11.88102 7.89384 5.41745 92.97311 8.07136 70.51479 32.70714 35.21542 88.26094 3.09314 18.19542 14.17351 28.34530 4.06170 -41.34635 -34.77478 10.98534 89.77476 -13.39578 -0.17189 -0.04534 8.61286 -8.46634 -35.39126 -32.64392 -5.04035 -16.23074 38.23183 49.53438 -36.67834 -19.62156 -0.02531 0.02930 7.34092 -27.18250 21.11562 
20.24245 90.83896 -35.83497 11.74282 12.52708 144.94063 -7.27811 11.82247 -14.36336 -0.00744 0.00053 0.00298 5.75692 1.54557 24.03238 -0.85137 5.87585 3.74782 -28.13216 -58.48822 -17.01190 -106.31374 -5.10734 -90.86652 -31.21077 15.54063 -6.79566 11.39178 7.33784 5.25553 93.68920 8.00255 70.02768 32.83265 35.61929 88.37865 7.66235 14.33202 11.43085 27.33718 4.75876 -42.29655 -33.94190 11.71917 86.55563 -15.31616 -0.09903 -0.03872 10.36131 -10.29910 -30.57833 -32.48120 -5.77656 -16.11403 40.22092 49.66903 -38.55584 -20.23055 -0.00109 0.02531 7.98461 -27.09907 22.05243 
19.37242 90.51797 -36.55185 12.24088 12.45211 143.81456 -6.65644 12.11051 -14.42772 -0.00914 -0.00086 0.00060 5.99513 1.78898 24.30648 -2.12709 5.31096 3.79720 -24.84945 -59.49973 -25.00744 -106.69810 -4.10607 -98.04872 -17.35080 14.64716 -31.01279 10.85529 6.79261 5.01489 94.23505 8.07122 69.59380 32.89593 35.87537 88.65380 5.79454 15.98382 13.20350 26.86003 5.60168 -41.89926 -33.39989 12.26344 83.17885 -16.66530 -0.05201 -0.02845 12.30792 -12.30084 -27.08066 -32.25404 -6.09213 -14.65395 43.06854 48.52938 -40.82568 -21.61492 0.00529 0.01806 8.82905 -28.11509 22.56523 
18.45858 90.26175 -37.21458 12.71256 12.44671 142.80888 -6.23391 12.40454 -14.45814 -0.00874 -0.00189 -0.00006 6.18719 2.04195 24.56974 -3.27399 4.85439 3.78665 -23.36816 -59.30711 -34.84769 -105.39745 -7.95637 -103.98008 -9.99223 12.74388 -22.91763 10.41152 6.36936 4.84435 94.53647 8.19403 69.24089 32.80381 36.08048 89.01739 8.48320 13.60151 11.48561 26.89814 6.58727 -40.32400 -33.23901 11.91819 81.64696 -16.78078 -0.00107 -0.02374 13.74122 -14.15833 -26.77969 -32.02082 -6.04716 -12.00444 46.27836 46.22798 -43.24448 -22.85324 0.01304 0.01610 9.18892 -28.39287 22.29464 
17.49759 90.07430 -37.83706 13.14992 12.50565 141.91547 -6.00681 12.69039 -14.43338 -0.00740 -0.00028 0.00044 6.31652 2.30044 24.84098 -4.40647 4.53717 4.15874 -23.63295 -58.27073 -46.02073 -103.47448 -14.56367 -109.15915 -10.80701 14.57030 -23.37848 10.03373 6.11529 4.81918 94.66132 8.30499 68.99032 32.57328 36.19233 89.46288 7.45776 14.26749 12.58299 27.39804 7.72847 -37.71044 -33.53111 11.12813 81.49867 -16.11507 -0.00989 -0.01866 14.42789 -15.95778 -29.14011 -31.87565 -5.68875 -8.30032 49.44327 42.87538 -45.54049 -24.24619 0.01945 0.01621 9.57639 -28.87646 21.81055 
16.49772 89.95036 -38.42495 13.54878 12.61783 141.11426 -5.94655 12.97034 -14.33242 -0.00599 0.00160 0.00182 6.36178 2.54619 25.14505 -5.11764 4.35642 4.45675 -23.84134 -57.55485 -52.30880 -102.01363 -18.98878 -112.31603 -8.64091 13.99154 -18.09257 9.47186 6.32684 5.00717 94.80314 8.41493 69.12840 32.19655 36.26440 89.93079 9.10605 12.67504 11.53935 28.27542 9.04814 -34.16966 -34.25578 10.16442 82.37175 -14.94855 -0.04164 -0.01748 14.27310 -17.84873 -33.70514 -31.81823 -5.33671 -4.76444 51.80006 39.64612 -46.92930 -25.45258 0.02235 0.01588 9.81121 -29.06294 21.09732 
15.47880 89.87577 -38.97749 13.90999 12.77043 140.38840 -6.01939 13.24526 -14.13092 -0.00489 0.00336 0.00360 6.31203 2.76556 25.49018 -5.52508 4.29478 4.76654 -24.55974 -57.22765 -55.67203 -100.75491 -21.69337 -113.90326 -10.85361 14.55833 -17.82563 9.08535 6.53898 5.35623 94.70970 8.46621 69.16772 31.72960 36.27078 90.39898 8.58138 12.81750 12.21454 29.42381 10.56666 -29.79806 -35.33992 9.23718 83.99200 -13.49164 -0.07638 -0.01552 13.26298 -19.90210 -40.12603 -31.85223 -4.98818 -1.40980 53.48361 36.61941 -47.64355 -26.44286 0.02311 0.01464 9.94791 -29.14409 20.24217 
14.46362 89.84538 -39.49144 14.23002 12.95180 139.73392 -6.18539 13.51726 -13.82080 -0.00455 0.00467 0.00544 6.15855 2.94305 25.87443 -5.44858 4.33330 4.99314 -30.67461 -58.49659 -57.91284 -98.00620 -20.45899 -110.59176 -10.02687 14.24821 -14.65507 8.85466 6.73329 5.80671 94.40494 8.50165 69.09203 31.18781 36.24462 90.81907 9.57636 11.76279 11.62307 30.37717 12.00856 -25.75494 -36.54479 8.69080 85.12892 -12.43017 -0.05483 0.00698 12.27748 -22.09180 -45.76537 -31.97332 -4.64755 1.74499 54.62347 33.82654 -47.89424 -27.10528 0.02177 0.01184 9.91328 -28.97421 19.26161 
13.47808 89.86498 -39.95956 14.50321 13.15038 139.15817 -6.41218 13.78233 -13.39823 -0.00493 0.00576 0.00718 5.90472 3.07073 26.27765 -5.05221 4.44663 5.31064 -39.33627 -60.34411 -59.00115 -93.32574 -20.93703 -103.76322 -15.11411 11.89994 -16.27913 8.75136 6.89432 6.29706 93.92687 8.53494 68.89960 30.61061 36.18047 91.18436 9.24889 11.73541 12.09609 31.14733 13.32853 -22.04610 -37.81140 8.45589 85.85526 -11.70497 -0.03239 0.00878 11.42017 -24.31972 -50.61045 -32.16558 -4.32121 4.67802 55.33883 31.26544 -47.86838 -27.48084 0.02030 0.00870 9.74829 -28.62105 18.26064 
12.54414 89.93974 -40.37217 14.72416 13.35409 138.67580 -6.67585 14.03629 -12.86320 -0.00401 0.00651 0.00881 5.56597 3.14437 26.66854 -4.45554 4.62148 5.81209 -48.53933 -62.00868 -58.99363 -87.44708 -21.38471 -95.96122 -5.89472 16.94702 -9.31141 8.77497 7.01340 6.79210 93.30917 8.57162 68.58303 29.99987 36.10940 91.47175 9.80316 11.08891 11.88206 31.75309 14.48639 -18.67508 -39.04530 8.48503 86.23329 -11.27861 -0.01633 0.00739 10.73653 -26.49438 -54.70891 -32.40298 -4.01399 7.36739 55.73571 28.91844 -47.72103 -27.62467 0.01941 0.00601 9.49548 -28.08577 17.35740 
11.67627 90.07393 -40.72192 14.88985 13.54866 138.30437 -6.96832 14.28412 -12.22323 -0.00508 0.00766 0.01001 5.18694 3.15383 27.01917 -3.78307 4.84445 6.31987 -56.32919 -63.00662 -56.98804 -83.29114 -16.76436 -91.33478 -15.20554 8.06460 -16.34403 8.87951 7.06760 7.23714 92.63861 8.60685 68.16521 29.42638 36.01917 91.68106 9.58885 11.05770 12.33585 32.21456 15.44924 -15.64021 -40.15131 8.73213 86.32243 -11.11394 -0.00540 0.00546 10.25199 -28.51117 -58.10373 -32.65494 -3.72907 9.79318 55.90486 26.76814 -47.55862 -27.61353 0.01925 0.00450 9.21896 -27.41452 16.64587 
10.88302 90.26433 -41.01151 14.99941 13.71522 138.06108 -7.27489 14.35791 -11.07930 -0.00727 0.01071 0.00648 4.79554 3.22143 26.88243 -3.12071 5.29189 6.23148 -61.53860 -63.20807 -52.37999 -80.75865 -10.02412 -89.60239 3.00509 19.61001 -4.81882 8.66189 7.44090 7.19855 92.27586 8.66282 67.99869 28.92166 35.93490 91.84452 9.95475 10.71098 12.39938 32.55025 16.19288 -12.93291 -41.05079 9.14589 86.17211 -11.17140 0.00143 0.00379 9.97671 -30.28937 -60.86007 -32.89390 -3.46890 11.93780 55.91785 24.80536 -47.42372 -27.49524 0.01933 0.00418 8.96440 -26.63419 16.15902 
